<svg width="200" height="50" viewBox="0 0 1281 484" fill="none" xmlns="http://www.w3.org/2000/svg">
<path d="M133.89 389.08C121.417 382.433 109.077 375.627 96.87 368.66C94.7367 367.44 92.2367 365.873 89.37 363.96C86.91 362.313 84.42 360.72 81.9 359.18C80.66 358.427 79.5333 357.527 78.52 356.48C78.4267 356.38 78.3133 356.34 78.18 356.36C78.0067 356.38 77.8467 356.34 77.7 356.24C72.3533 352.413 67.1667 348.39 62.14 344.17C61.13 343.32 59.54 342.36 58.43 341.17C56.68 339.3 54.97 338.33 53.38 336.86C43.9867 328.133 37.4567 321.623 33.79 317.33C26.09 308.32 18.92 299.09 13.5 288.5C10.53 282.68 7.86 277.85 5.69 269.94C5.13 267.9 4.57 264.7 3.72 262.16C3.06 260.2 2.59333 258.73 2.32 257.75C1.92667 256.297 1.48667 254.813 1 253.3" stroke="#EB958C" stroke-width="2"/>
<path d="M1053.45 267.96C1056 267.553 1058.84 267.08 1061.98 266.54C1081.55 263.17 1092.31 246.83 1092.49 227.75C1092.6 216.763 1092.66 199.08 1092.69 174.7C1092.7 172.64 1092.36 170.56 1090.98 169.27C1079.35 158.397 1067.77 147.477 1056.24 136.51C1054.13 134.51 1052.05 133.497 1050 133.47C1034.37 133.27 1000.57 133.297 948.62 133.55C944.1 133.57 940.76 133.73 937.94 131.08C934.16 127.513 930.253 123.887 926.22 120.2C926.076 120.071 925.97 119.905 925.914 119.72C925.857 119.535 925.852 119.338 925.9 119.151C925.947 118.964 926.045 118.793 926.182 118.657C926.32 118.521 926.492 118.425 926.68 118.38C942.2 114.63 932.1 99.45 921.86 101.2C914.82 102.41 909.2 107.37 910.8 115.03C912.74 124.31 925.09 134.94 932.57 141.44C945.39 152.593 955.353 161.377 962.46 167.79C965.39 170.44 966.65 171.82 970.91 171.82C991.243 171.82 1011.9 171.61 1032.88 171.19C1033.8 171.17 1034.39 171.6 1034.65 172.48C1034.9 173.333 1035.03 174.507 1035.03 176C1035.01 189.247 1035.03 202.497 1035.09 215.75C1035.13 225.65 1031.66 237.54 1019.24 234.88C1015.62 234.1 1010.14 231.24 1007.46 228.82C997.487 219.827 987.4 210.96 977.2 202.22C974.98 200.32 973.613 198.633 973.1 197.16C971.93 193.78 973.37 187.8 977.01 186.29C979.49 185.27 982.05 184.667 984.69 184.48C984.758 184.475 984.827 184.485 984.891 184.51C984.954 184.535 985.012 184.573 985.059 184.623C985.106 184.673 985.141 184.733 985.162 184.798C985.183 184.863 985.189 184.932 985.18 185C984.74 188.36 981.41 190.12 980.33 193.44C980.204 193.823 980.218 194.239 980.37 194.613C980.522 194.986 980.802 195.294 981.16 195.48C985.92 197.99 990.93 199.07 994.85 194.32C996.057 192.867 996.543 191.257 996.31 189.49C995.02 179.92 985.47 177.28 977.09 178.33C974.243 178.683 971.803 179.67 969.77 181.29C964.85 185.22 961.25 193.03 961.21 199.25C961.103 216.17 960.973 233.087 960.82 250C960.8 251.673 961.3 252.983 962.32 253.93C976.71 267.25 993.6 281.22 1009.29 295.07C1017.89 302.657 1026.55 310.167 1035.28 317.6C1043.04 324.21 1052.3 332.91 1061.17 340.18C1064.76 343.13 1071.11 348.56 1071.54 353.24C1071.93 357.62 1069.89 365.51 1064.34 366.58C1062 367.03 1057.3 367.77 1055.58 365.49C1055.33 365.151 1055.21 364.727 1055.26 364.306C1055.3 363.884 1055.51 363.496 1055.83 363.22C1057.85 361.49 1062.09 357.9 1059.78 354.97C1058.47 353.31 1054.06 349.59 1051.71 350.28C1041.68 353.22 1042.25 362.15 1047.77 368.73C1054.4 376.65 1066.09 378.05 1075.48 374.68C1084.73 371.373 1091.65 365.803 1096.24 357.97C1105.9 341.51 1105.64 318.02 1092.15 303.61C1083.14 293.97 1071.73 284.5 1061.11 275.39C1058.54 273.19 1055.89 271.127 1053.16 269.2C1052.23 268.547 1052.33 268.133 1053.45 267.96Z" stroke="#EB958C" stroke-width="2"/>
<path d="M698 277.86L698.79 363.46C698.791 363.545 698.816 363.629 698.861 363.701C698.907 363.773 698.972 363.831 699.049 363.869C699.126 363.906 699.211 363.921 699.296 363.913C699.381 363.904 699.462 363.872 699.53 363.82L761.55 315.08C761.745 314.925 761.971 314.814 762.212 314.752C762.454 314.691 762.705 314.681 762.951 314.724C763.196 314.766 763.43 314.86 763.636 314.999C763.843 315.138 764.018 315.319 764.15 315.53C773.7 330.69 785.72 339.57 804.21 338.11C814.94 337.26 829.93 332.49 832.89 320.22C833.943 315.833 832.677 311.727 829.09 307.9C824.86 303.38 816.09 308.16 814.8 313.37C814.467 314.723 814.747 316.053 815.64 317.36C816.853 319.147 818.323 320.667 820.05 321.92C820.139 321.985 820.212 322.069 820.263 322.167C820.314 322.265 820.342 322.372 820.345 322.483C820.348 322.593 820.326 322.702 820.28 322.802C820.234 322.902 820.165 322.99 820.08 323.06C818.153 324.627 816.04 325.68 813.74 326.22C805.51 328.16 799.93 319.88 803.69 312.71C805.463 309.337 807.827 306.447 810.78 304.04C827.24 290.67 843.83 277.32 860.67 264.42C864.71 261.327 868.737 258.1 872.75 254.74C874.063 253.64 874.113 252.483 872.9 251.27C869.07 247.45 865.02 243.76 861.46 239.83C849.53 226.64 837.48 213.53 824.74 201.11C822.82 199.24 821.31 198.78 818.75 198.76C797.817 198.62 776.99 198.65 756.27 198.85C756.143 198.851 756.017 198.827 755.9 198.78C755.782 198.732 755.675 198.662 755.585 198.572C755.495 198.483 755.423 198.377 755.374 198.26C755.325 198.143 755.3 198.017 755.3 197.89L755.34 173.76C755.34 173.654 755.382 173.552 755.457 173.477C755.532 173.402 755.634 173.36 755.74 173.36L889.43 172.78C889.672 172.78 889.905 172.874 890.077 173.043C890.249 173.211 890.347 173.44 890.35 173.68L891.12 361.71C891.12 362.51 891.437 362.663 892.07 362.17C916.42 343.15 938.85 324.52 962.46 306.59C962.733 306.377 962.847 306.1 962.8 305.76C962.78 305.647 962.767 305.533 962.76 305.42C962.753 305.354 962.732 305.291 962.697 305.235C962.662 305.179 962.615 305.132 962.559 305.097C962.503 305.062 962.439 305.041 962.374 305.034C962.308 305.028 962.242 305.037 962.18 305.06C957.367 306.94 952.757 306.537 948.35 303.85C947.998 303.634 947.703 303.335 947.491 302.98C947.279 302.625 947.155 302.224 947.13 301.81C947.03 300.17 946.98 298.483 946.98 296.75C946.88 256.25 946.657 215.75 946.31 175.25C946.28 171.55 943.85 169.6 941.36 167.39C929.7 157.043 917.95 146.79 906.11 136.63C903.2 134.13 899.42 134.64 895.66 134.68C830.7 135.27 765.7 136.54 700.75 136.76C618.75 137.033 536.75 137.58 454.75 138.4C452.757 138.42 451.02 137.77 449.54 136.45C445.567 132.91 441.193 129.113 436.42 125.06C436.25 124.918 436.121 124.734 436.046 124.526C435.97 124.318 435.952 124.094 435.991 123.876C436.031 123.659 436.128 123.456 436.272 123.288C436.415 123.12 436.601 122.993 436.81 122.92C439.57 121.93 443.02 121.24 444.9 118.84C448.49 114.26 447.19 108.38 442.6 105.13C435.35 100 426.3 106.22 423.61 113.59C420.44 122.28 429.4 134.18 435.48 139.51C447.993 150.497 460.597 161.383 473.29 172.17C475.59 174.13 477.64 175.05 480.5 175.03C552.007 174.577 624.003 174.297 696.49 174.19C697.057 174.19 697.34 174.473 697.34 175.04V198.78C697.347 199.093 697.19 199.25 696.87 199.25C675.79 199.637 654.76 200.063 633.78 200.53C632.333 200.557 631.1 201.077 630.08 202.09C625.347 206.777 620.57 211.417 615.75 216.01C605.59 225.677 595.453 235.37 585.34 245.09C584.633 245.763 584.133 246.357 583.84 246.87C583.42 247.597 583.517 248.247 584.13 248.82L649.31 309.86C649.517 310.052 649.784 310.168 650.066 310.188C650.347 310.208 650.628 310.131 650.86 309.97L697.55 277.62C697.85 277.413 698 277.493 698 277.86Z" stroke="#EB958C" stroke-width="2"/>
<path d="M356.18 251.18C355.893 259.6 355.833 268.207 356 277C356.02 277.933 356.13 278.61 356.33 279.03C356.71 279.857 357.263 280.267 357.99 280.26C371.63 280.16 385.2 279.6 398.52 280.26C398.627 280.265 398.728 280.312 398.801 280.391C398.873 280.469 398.913 280.573 398.91 280.68L398.74 363.74C398.74 364.147 398.93 364.28 399.31 364.14C400.597 363.66 401.78 362.993 402.86 362.14C418.9 349.46 435.22 337.15 451.2 324.39C457.32 319.497 463.547 314.74 469.88 310.12C470.113 309.947 470.273 309.773 470.36 309.6C470.403 309.517 470.42 309.424 470.411 309.331C470.401 309.238 470.365 309.15 470.306 309.076C470.247 309.003 470.169 308.947 470.079 308.916C469.989 308.885 469.893 308.879 469.8 308.9C465.453 309.953 461.217 309.93 457.09 308.83C454.68 308.19 454.14 307.13 454.12 304.75C453.747 264.417 453.523 224.083 453.45 183.75C453.443 180.357 453.383 177.073 453.27 173.9C453.251 173.401 453.131 172.911 452.918 172.46C452.705 172.01 452.403 171.608 452.03 171.28C441.863 162.38 431.467 153.567 420.84 144.84C416.06 140.91 413.6 138.35 408.51 138.46C344.46 139.89 280.32 139.46 216.25 140.24C213.737 140.273 211.817 139.63 210.49 138.31C206.297 134.117 201.84 130.03 197.12 126.05C196.993 125.943 196.899 125.801 196.851 125.641C196.803 125.482 196.802 125.312 196.849 125.152C196.895 124.992 196.987 124.849 197.113 124.74C197.24 124.632 197.395 124.562 197.56 124.54C208.44 123.04 206.04 109.57 197.93 106.27C192.46 104.05 187.31 104.27 183.4 109.14C179.62 113.85 177.69 119.43 181.02 125C183.4 128.973 186.667 132.87 190.82 136.69C204.09 148.86 217.79 160.69 230.86 172.88C233.27 175.13 235.4 176.39 238.5 176.46C255.2 176.853 273.2 176.897 292.5 176.59C294.56 176.557 296.443 176.56 298.15 176.6C298.456 176.605 298.748 176.729 298.965 176.945C299.181 177.162 299.305 177.454 299.31 177.76C299.57 194.073 299.46 210.15 298.98 225.99C298.88 229.223 298.45 231.623 297.69 233.19C294.53 239.73 285.03 241.04 279.16 238.94C276.82 238.107 273.75 235.98 269.95 232.56C262.263 225.647 254.53 218.783 246.75 211.97C244.177 209.717 242.477 207.947 241.65 206.66C238.84 202.31 237.75 195.63 242.41 192.09C243.71 191.1 245.74 190.81 247.22 191.24C247.458 191.311 247.676 191.436 247.858 191.605C248.04 191.773 248.181 191.981 248.27 192.212C248.359 192.443 248.394 192.691 248.371 192.937C248.348 193.183 248.269 193.42 248.14 193.63C246.3 196.65 243.18 200.38 247.01 203.46C250.61 206.36 255.38 204.18 257.86 200.88C259.98 198.06 260.357 195.023 258.99 191.77C255.74 184.02 249.72 182.75 242.25 183.05C230.75 183.53 224.62 194.2 224.5 204.75C224.307 221.283 224.227 237.82 224.26 254.36C224.26 255.82 224.7 257.69 225.63 258.62C233.6 266.51 243.95 274.69 252.13 282.13C263.07 292.06 274.42 301.55 285.49 311.36C297.95 322.41 310.76 332.92 323.02 344.23C331.16 351.73 334.81 360.94 330.5 371.72C328.5 376.74 321.95 376.48 317.91 374.54C317.615 374.398 317.361 374.183 317.173 373.914C316.985 373.646 316.869 373.334 316.836 373.007C316.803 372.68 316.854 372.35 316.984 372.048C317.114 371.745 317.319 371.481 317.58 371.28C321.95 367.92 326.52 362.3 320.04 357.8C315.29 354.5 310.54 355.41 307.46 360.29C300.69 371.02 312.97 381.66 322.86 382.89C350.15 386.3 366.59 358.52 365.95 334.74C365.46 316.41 351.94 302.76 338.42 291.36C331.207 285.273 324.053 279.407 316.96 273.76C315.267 272.407 315.503 271.713 317.67 271.68C332.71 271.45 346.25 262.28 355.43 250.9C355.963 250.247 356.213 250.34 356.18 251.18Z" stroke="#EB958C" stroke-width="2"/>
<path d="M532.62 238.84L574.21 239.06C575.063 239.067 575.49 238.643 575.49 237.79V201.27C575.49 201.111 575.426 200.958 575.311 200.846C575.197 200.733 575.042 200.67 574.88 200.67C554.233 200.77 533.523 200.817 512.75 200.81C511.243 200.81 510.077 201.21 509.25 202.01C495.89 214.983 482.477 227.9 469.01 240.76C468.35 241.393 467.773 241.99 467.28 242.55C467.14 242.713 467.063 242.921 467.065 243.134C467.067 243.348 467.147 243.553 467.29 243.71C469.897 246.597 472.583 249.25 475.35 251.67C485.137 260.237 494.837 268.9 504.45 277.66C515.6 287.81 528.03 298.45 539.52 309.24C545.02 314.41 547.05 325.31 537.79 327.59C535.39 328.177 533.427 328.117 531.9 327.41C530.567 326.797 530.257 325.847 530.97 324.56C532.33 322.1 537.59 316.06 534.23 312.77C529.59 308.22 522.49 308.45 520.06 314.89C518.65 318.63 518.17 322.89 520.45 326.53C524.69 333.303 530.703 336.863 538.49 337.21C553.51 337.88 565.77 333.7 574.56 321.33C589.71 300.02 577.82 278.97 560.78 264.21C551.31 256.01 541.21 248.22 532.44 239.27C532.16 238.983 532.22 238.84 532.62 238.84Z" stroke="#EB958C" stroke-width="2"/>
<path d="M532.18 413.13C528.21 410.22 529.01 401.57 535.03 403.39C535.183 403.437 535.283 403.383 535.33 403.23L535.42 402.94C535.487 402.7 535.403 402.543 535.17 402.47C529.66 400.7 522.49 402.44 520.99 408.56C519.03 416.56 527.78 420.01 532.99 423.47C537.39 426.38 538.32 431.64 532.88 433.77C532.333 433.983 531.79 434.207 531.25 434.44C530.903 434.587 530.837 434.813 531.05 435.12C531.17 435.293 531.34 435.393 531.56 435.42C536.91 436.11 544.15 435.85 545 428.77C546.13 419.4 538.09 417.47 532.18 413.13Z" stroke="#EB958C" stroke-width="2"/>
<path d="M710.76 418.73C708.06 421.24 703.42 426.64 705.95 430.5C708.217 433.96 711.667 435.613 716.3 435.46C716.573 435.447 716.67 435.31 716.59 435.05C716.33 434.19 715.843 433.547 715.13 433.12C709.07 429.48 707.87 426.04 713.53 420.84C713.763 420.627 714.033 420.557 714.34 420.63C718.04 421.483 720.753 423.27 722.48 425.99C724.23 428.74 720.36 434.07 717.62 435.3C716.96 435.593 716.99 435.763 717.71 435.81C722.79 436.137 726.95 434.437 730.19 430.71C734.65 425.58 727.37 418.8 723.54 415.21C722.68 414.4 720.2 414.68 718.9 413.93C716.7 412.677 715.257 410.877 714.57 408.53C714.476 408.208 714.468 407.867 714.547 407.542C714.626 407.217 714.789 406.92 715.02 406.68C716.44 405.193 718.11 404.077 720.03 403.33C720.363 403.197 720.67 403.243 720.95 403.47C724.28 406.22 724.2 408.6 724.27 412.69C724.277 413.33 724.59 413.723 725.21 413.87C727.05 414.323 728.177 413.853 728.59 412.46C730.88 404.78 725.35 403.64 719.75 402.19C718.09 401.763 716.59 401.69 715.25 401.97C710.88 402.89 705.25 407.04 707.07 412.13C707.74 414.01 709.83 415.6 710.94 417.62C711.038 417.8 711.073 418.007 711.04 418.208C711.008 418.409 710.909 418.593 710.76 418.73Z" stroke="#EB958C" stroke-width="2"/>
<path d="M688.87 434.69C688.722 434.884 688.524 435.035 688.297 435.125C688.07 435.216 687.822 435.243 687.581 435.204C687.34 435.165 687.114 435.061 686.927 434.904C686.74 434.746 686.599 434.541 686.52 434.31C685.5 431.34 684.62 424.09 679.21 427.15C678.75 427.41 678.487 427.9 678.42 428.62C677.94 433.76 682.97 436.14 687.3 436.15C691.84 436.17 695.77 433.96 698.59 430.5C703.37 424.65 702.49 409.17 696.24 404.2C694.84 403.087 692.857 402.393 690.29 402.12C681.3 401.19 676.53 405.41 677.15 414.61C677.57 420.88 683.29 423.72 689.13 422.22C689.61 422.1 689.883 421.783 689.95 421.27C689.968 421.114 689.928 420.958 689.837 420.831C689.746 420.705 689.612 420.619 689.46 420.59C687.667 420.243 686.603 419.053 686.27 417.02C685.617 413.087 685.603 409.25 686.23 405.51C686.288 405.157 686.429 404.823 686.642 404.536C686.855 404.248 687.133 404.016 687.454 403.857C687.775 403.699 688.128 403.619 688.486 403.625C688.843 403.631 689.195 403.722 689.51 403.89C694.85 406.73 692.09 418.41 692.64 423.41C693.16 428.12 691.36 431.46 688.87 434.69Z" stroke="#EB958C" stroke-width="2"/>
<path d="M748.74 403.02C753.87 408.79 753.27 418.77 752.4 426.2C752.02 429.4 750.16 431.92 748.8 434.86C748.768 434.932 748.753 435.01 748.758 435.089C748.762 435.168 748.785 435.244 748.825 435.312C748.866 435.379 748.922 435.436 748.989 435.478C749.056 435.519 749.131 435.544 749.21 435.55C754.52 435.92 759.62 429.77 761.03 425.51C761.91 422.823 762.093 419.67 761.58 416.05C760.59 409.06 757.44 403.64 750.21 402.56C748.083 402.247 746.627 402.09 745.84 402.09C739.89 402.14 735.59 409.13 734.94 414.24C734.3 419.247 734.237 422.92 734.75 425.26C735.43 428.3 741.17 436.62 745.78 435.5C745.972 435.453 746.15 435.359 746.297 435.228C746.445 435.097 746.559 434.932 746.629 434.747C746.699 434.562 746.723 434.362 746.698 434.166C746.674 433.97 746.603 433.783 746.49 433.62C744.39 430.58 743.247 427.377 743.06 424.01C742.77 418.54 742.39 411.62 744.48 406.46C745.18 404.73 746.62 403.96 748.09 402.94C748.33 402.78 748.547 402.807 748.74 403.02Z" stroke="#EB958C" stroke-width="2"/>
<path d="M661.34 410.96C661.689 410.983 662.015 411.143 662.248 411.405C662.48 411.667 662.599 412.01 662.58 412.36C662.407 415.927 662.3 419.493 662.26 423.06C662.22 426.82 661.59 430.11 660.95 433.73C660.905 433.995 660.965 434.267 661.116 434.487C661.268 434.708 661.499 434.859 661.76 434.91C664.68 435.45 667.563 435.36 670.41 434.64C671.17 434.447 671.503 433.96 671.41 433.18C670.45 424.907 670.18 416.43 670.6 407.75C670.64 406.93 670.393 405.42 669.86 403.22C669.793 402.94 669.62 402.773 669.34 402.72C667.34 402.327 665.793 402.557 664.7 403.41C662.34 405.26 658.96 406.48 657.67 409.34C657.601 409.491 657.571 409.656 657.58 409.821C657.59 409.987 657.64 410.147 657.726 410.289C657.811 410.431 657.93 410.55 658.072 410.635C658.214 410.721 658.375 410.77 658.54 410.78L661.34 410.96Z" stroke="#EB958C" stroke-width="2"/>
<path d="M555.94 402.68L552.1 403.03C551.927 403.045 551.759 403.094 551.606 403.174C551.452 403.254 551.315 403.364 551.204 403.497C551.092 403.629 551.008 403.783 550.956 403.948C550.904 404.113 550.885 404.287 550.9 404.46L551.01 405.6C551.094 406.518 551.457 407.373 552.019 407.976C552.582 408.58 553.298 408.883 554.01 408.82L555.11 408.72C555.822 408.654 556.472 408.226 556.917 407.531C557.361 406.835 557.564 405.928 557.48 405.01L557.38 403.87C557.364 403.697 557.314 403.53 557.232 403.376C557.151 403.223 557.04 403.087 556.907 402.977C556.773 402.866 556.619 402.783 556.453 402.732C556.287 402.681 556.113 402.664 555.94 402.68Z" stroke="#EB958C" stroke-width="2"/>
<path d="M539.26 407.73C539.418 408.013 539.65 408.248 539.93 408.41L542.04 409.64C542.343 409.816 542.69 409.899 543.04 409.881C543.389 409.862 543.725 409.742 544.008 409.535C544.29 409.328 544.506 409.043 544.629 408.716C544.752 408.388 544.776 408.032 544.7 407.69L544.06 404.82C543.979 404.461 543.79 404.135 543.519 403.886C543.247 403.638 542.905 403.478 542.54 403.43L539.96 403.09C539.63 403.048 539.295 403.098 538.992 403.236C538.688 403.373 538.429 403.591 538.243 403.867C538.056 404.142 537.95 404.464 537.935 404.797C537.921 405.129 537.998 405.459 538.16 405.75L539.26 407.73Z" stroke="#EB958C" stroke-width="2"/>
<path d="M555.02 411.47L554.32 411.19C551.847 410.197 550.68 411.03 550.82 413.69C551.167 420.243 550.9 426.78 550.02 433.3C549.84 434.627 550.42 435.283 551.76 435.27L557.37 435.19C558.717 435.17 559.36 434.487 559.3 433.14L558.59 416.51C558.483 414.063 557.293 412.383 555.02 411.47Z" stroke="#EB958C" stroke-width="2"/>
<path d="M588.82 419.55C588.33 413.03 583.47 409.76 577.13 411.79C576.973 411.842 576.834 411.937 576.728 412.064C576.623 412.191 576.555 412.345 576.533 412.509C576.511 412.673 576.536 412.84 576.604 412.99C576.673 413.141 576.782 413.269 576.92 413.36C579.15 414.81 581.23 415.1 581.45 418.25C581.73 422.157 581.757 426.933 581.53 432.58C581.47 434.14 582.22 434.963 583.78 435.05L588.24 435.3C589.773 435.387 590.437 434.67 590.23 433.15C589.657 429.037 589.187 424.503 588.82 419.55Z" stroke="#EB958C" stroke-width="2"/>
<path d="M605.25 413.71C606.403 413.95 607.463 414.403 608.43 415.07C608.724 415.269 608.929 415.578 609 415.93C609.29 417.37 609.67 418.52 611.13 419.12C612.65 419.73 615.77 419.85 616.29 417.76C616.84 415.55 614.11 413.29 612.47 412.48C611.683 412.087 610.34 411.887 608.44 411.88C605.01 411.86 600.7 410.46 598.12 413.61C593.107 419.703 592.83 426.153 597.29 432.96C599 435.58 602.93 435.87 606.06 435.19C609.58 434.43 612.48 434.24 615.49 431.7C615.556 431.644 615.61 431.573 615.647 431.494C615.684 431.415 615.703 431.33 615.704 431.242C615.705 431.155 615.688 431.069 615.652 430.989C615.617 430.909 615.565 430.838 615.5 430.78L615.19 430.5C614.823 430.173 614.477 430.19 614.15 430.55C611.963 432.977 609.213 433.73 605.9 432.81C605.578 432.72 605.301 432.517 605.12 432.24C603.787 430.26 603.093 428.93 603.04 428.25C602.75 424.88 602.13 416.62 604.35 414.01C604.59 413.73 604.89 413.63 605.25 413.71Z" stroke="#EB958C" stroke-width="2"/>
<path d="M628.8 425.13C629.493 425.17 630.147 425.087 630.76 424.88C631.133 424.76 631.127 424.653 630.74 424.56C629.04 424.13 627.77 424.13 627.12 421.97C626.19 418.92 627.1 414.06 631.25 414.08C632.677 414.087 633.417 414.743 633.47 416.05C633.56 418.44 634.25 422.65 632.04 424.22C631.767 424.413 631.797 424.53 632.13 424.57C635.01 424.883 637.067 424.907 638.3 424.64C642.99 423.64 641.78 417.5 639.61 414.65C636.61 410.7 632.4 412.03 628.38 411.94C626.19 411.89 623.52 412.27 622.23 413.71C618.877 417.463 617.67 422.157 618.61 427.79C618.857 429.303 620.37 431.383 623.15 434.03C624.663 435.483 626.457 436.05 628.53 435.73L630.01 435.5C632.123 435.18 632.333 434.363 630.64 433.05C628.62 431.497 627.463 429.43 627.17 426.85C627.145 426.626 627.169 426.399 627.241 426.185C627.312 425.971 627.43 425.775 627.585 425.611C627.741 425.447 627.93 425.32 628.139 425.236C628.349 425.153 628.575 425.117 628.8 425.13Z" stroke="#EB958C" stroke-width="2"/>
<path d="M574.81 433.39L574.37 415.95C574.351 415.079 574.027 414.242 573.454 413.583C572.88 412.924 572.094 412.484 571.23 412.34L568.73 411.92C566.77 411.593 565.893 412.42 566.1 414.4C566.74 420.673 566.55 426.907 565.53 433.1C565.303 434.493 565.893 435.193 567.3 435.2L572.99 435.25C574.237 435.257 574.843 434.637 574.81 433.39Z" stroke="#EB958C" stroke-width="2"/>
<path d="M528.01 432.65C526.36 430.01 523.82 427.98 521 427.19C520.916 427.166 520.827 427.161 520.741 427.174C520.654 427.187 520.571 427.218 520.498 427.265C520.424 427.312 520.361 427.375 520.313 427.448C520.265 427.521 520.234 427.604 520.22 427.69C519.887 429.943 520.09 432.14 520.83 434.28C520.881 434.43 520.974 434.563 521.097 434.664C521.221 434.765 521.371 434.829 521.53 434.85C523.443 435.097 525.363 434.97 527.29 434.47C527.475 434.422 527.646 434.332 527.789 434.206C527.932 434.079 528.043 433.921 528.113 433.743C528.184 433.566 528.211 433.374 528.193 433.184C528.175 432.994 528.112 432.811 528.01 432.65Z" stroke="#EB958C" stroke-width="2"/>
<path d="M639.16 429.89L633.55 434.11C633.537 434.12 633.527 434.132 633.519 434.146C633.511 434.16 633.506 434.175 633.504 434.191C633.503 434.207 633.504 434.223 633.508 434.238C633.513 434.253 633.52 434.268 633.53 434.28L633.55 434.3C633.874 434.729 634.475 434.921 635.222 434.835C635.968 434.749 636.798 434.391 637.53 433.84L637.8 433.64C638.164 433.366 638.493 433.053 638.767 432.718C639.041 432.383 639.256 432.033 639.4 431.688C639.543 431.344 639.611 431.011 639.601 430.709C639.591 430.407 639.502 430.143 639.34 429.93L639.33 429.91C639.32 429.897 639.308 429.887 639.294 429.879C639.28 429.871 639.265 429.866 639.249 429.864C639.233 429.863 639.217 429.864 639.202 429.868C639.187 429.873 639.172 429.88 639.16 429.89Z" stroke="#EB958C" stroke-width="2"/>
<path d="M762.72 309.54C762.73 299.15 763.99 288.18 770.6 279.6C782.33 264.38 800.62 252.01 816.35 239.79C817.817 238.65 817.62 238.077 815.76 238.07L756.55 237.7C756.412 237.7 756.28 237.755 756.182 237.852C756.085 237.95 756.03 238.082 756.03 238.22C756.123 259.547 756.073 280.723 755.88 301.75C755.847 305.83 757.723 308.693 761.51 310.34C761.642 310.396 761.786 310.419 761.929 310.406C762.072 310.393 762.21 310.344 762.33 310.265C762.45 310.186 762.548 310.078 762.616 309.952C762.684 309.825 762.72 309.684 762.72 309.54Z" stroke="#EB958C" stroke-width="2"/>
<path d="M697.86 238.99C697.863 238.932 697.854 238.875 697.833 238.821C697.813 238.767 697.781 238.718 697.741 238.676C697.7 238.635 697.652 238.603 697.599 238.581C697.545 238.559 697.488 238.549 697.43 238.55L647.96 238.88C647.873 238.878 647.788 238.904 647.717 238.952C647.645 239.001 647.59 239.07 647.559 239.151C647.528 239.232 647.524 239.321 647.545 239.405C647.567 239.489 647.614 239.564 647.68 239.62L681.24 268.93C681.312 268.991 681.402 269.027 681.497 269.03C681.591 269.034 681.684 269.006 681.76 268.95L697.13 257.69C697.184 257.653 697.228 257.604 697.259 257.546C697.29 257.489 697.308 257.425 697.31 257.36L697.86 238.99Z" stroke="#EB958C" stroke-width="2"/>
<path d="M398.03 176.27C398.03 176.18 397.994 176.093 397.93 176.03C397.867 175.966 397.78 175.93 397.69 175.93L358.56 175.98C358.47 175.98 358.383 176.016 358.32 176.08C358.256 176.143 358.22 176.23 358.22 176.32L358.28 235.49C358.28 235.58 358.316 235.667 358.38 235.73C358.443 235.794 358.53 235.83 358.62 235.83L398.06 235.36C398.15 235.36 398.237 235.324 398.3 235.26C398.364 235.197 398.4 235.11 398.4 235.02L398.03 176.27Z" stroke="#EB958C" stroke-width="2"/>
<path d="M1281 237.38V250.98C1280.29 258.82 1279.14 265.27 1277.57 270.33C1269.48 296.32 1249.77 320.1 1228.45 338.22C1204.35 358.71 1177.98 374.79 1149.53 388.73C1135.3 395.697 1123.58 401.07 1114.37 404.85C1098.21 411.48 1077.85 419.14 1059.21 424.99C1048.6 428.32 1038.02 432.01 1027.27 434.86C1019.84 436.83 1011.52 439.3 1005.04 440.94C991.38 444.407 977.683 447.707 963.95 450.84C960.73 451.573 958.58 452.063 957.5 452.31C947.087 454.67 931.837 457.647 911.75 461.24C889.78 465.16 875.07 467.15 858.31 469.65C850.317 470.843 845.263 471.57 843.15 471.83C820.877 474.617 805.91 476.28 798.25 476.82C791.163 477.313 784.087 477.913 777.02 478.62C770.707 479.24 764.39 479.8 758.07 480.3C750.51 480.9 741.86 480.93 733.74 481.4C726.58 481.813 719.417 482.193 712.25 482.54C705.837 482.853 699.17 483.03 692.25 483.07C654.643 483.297 619.643 483.27 587.25 482.99C571.74 482.86 554.99 481.44 540.16 480.79C528.85 480.3 520.59 479.95 510.99 478.67C507.703 478.23 504.53 477.913 501.47 477.72C488.037 476.88 477.297 475.96 469.25 474.96C441.19 471.49 414.41 468.45 387.15 463.78C370.44 460.91 353.79 458.23 337.09 454.67C311.27 449.17 282.89 442.93 253.15 434.22C219.757 424.433 187.56 412.993 156.56 399.9C149.793 397.04 142.237 393.433 133.89 389.08C121.417 382.433 109.077 375.627 96.87 368.66C94.7367 367.44 92.2367 365.873 89.37 363.96C86.91 362.313 84.42 360.72 81.9 359.18C80.66 358.427 79.5333 357.527 78.52 356.48C78.4267 356.38 78.3133 356.34 78.18 356.36C78.0067 356.38 77.8467 356.34 77.7 356.24C72.3533 352.413 67.1667 348.39 62.14 344.17C61.13 343.32 59.54 342.36 58.43 341.17C56.68 339.3 54.97 338.33 53.38 336.86C43.9867 328.133 37.4567 321.623 33.79 317.33C26.09 308.32 18.92 299.09 13.5 288.5C10.53 282.68 7.86 277.85 5.69 269.94C5.13 267.9 4.57 264.7 3.72 262.16C3.06 260.2 2.59333 258.73 2.32 257.75C1.92667 256.297 1.48667 254.813 1 253.3V232.24C3.77 218.67 7.01 205.47 13.75 193.65C20.53 181.77 27.9667 171.653 36.06 163.3C55.5867 143.133 77.5467 126.093 101.94 112.18C110.08 107.54 118.26 102.96 126.48 98.4399C131.1 95.8933 141.777 90.9199 158.51 83.5199C164.457 80.8866 175.273 76.4799 190.96 70.2999C193.08 69.4699 196.76 68.3799 199.55 67.1999C200.95 66.6066 202.077 66.1633 202.93 65.8699C241.23 52.8999 280.13 42.1799 319.57 33.2799C322.87 32.5299 329.52 31.3199 334.42 30.1199C339.28 28.9399 344.12 28.2899 348.97 27.2699C355.05 25.9799 360.86 25.4199 366.76 24.1299C372.61 22.8599 379.93 21.9399 384.4 21.1699C398.48 18.7299 412.87 16.2299 427.19 14.5199C443.25 12.5999 459.26 10.0799 475.41 8.76992C485.92 7.91992 496.7 6.46994 506.82 5.72994C511.88 5.36328 516.937 4.97326 521.99 4.55993C537.61 3.27993 552.95 2.47992 568.46 2.01992C575.13 1.82992 582.09 1.14993 588.35 1.05993C623.457 0.586595 658.56 0.556599 693.66 0.969932C697.553 1.0166 702.94 1.22992 709.82 1.60992C717.02 2.00992 724.61 2.04994 731.38 2.50994C746.9 3.57661 762.42 4.6666 777.94 5.77993C788.57 6.54993 801.37 8.16993 813.14 8.96993C816.9 9.22993 820.72 9.85994 824.52 10.2899C830.187 10.9299 835.83 11.7066 841.45 12.6199C844.87 13.1799 848.25 13.5966 851.59 13.8699C860.89 14.6299 867.83 16.0499 878 17.4799C889.327 19.0666 904.22 21.6233 922.68 25.1499C924.53 25.5099 927.37 25.7999 929.98 26.2899C977.55 35.1199 1024.66 47.4399 1070.54 62.7599C1097.52 71.7599 1124.03 82.9099 1149.72 95.0899C1154.68 97.4366 1159.54 99.9599 1164.31 102.66C1174.28 108.3 1184.12 114.16 1193.83 120.24C1219.44 136.29 1243.57 156.67 1260.86 181.67C1268.29 192.417 1273.49 202.297 1276.45 211.31C1279.2 219.68 1279.63 228.64 1281 237.38ZM1053.45 267.96C1056 267.553 1058.84 267.08 1061.98 266.54C1081.55 263.17 1092.31 246.83 1092.49 227.75C1092.6 216.763 1092.66 199.08 1092.69 174.7C1092.7 172.64 1092.36 170.56 1090.98 169.27C1079.35 158.397 1067.77 147.477 1056.24 136.51C1054.13 134.51 1052.05 133.497 1050 133.47C1034.37 133.27 1000.57 133.297 948.62 133.55C944.1 133.57 940.76 133.73 937.94 131.08C934.16 127.513 930.253 123.887 926.22 120.2C926.076 120.071 925.97 119.905 925.914 119.72C925.857 119.535 925.852 119.338 925.9 119.151C925.947 118.963 926.045 118.793 926.182 118.657C926.32 118.521 926.492 118.425 926.68 118.38C942.2 114.63 932.1 99.4499 921.86 101.2C914.82 102.41 909.2 107.37 910.8 115.03C912.74 124.31 925.09 134.94 932.57 141.44C945.39 152.593 955.353 161.377 962.46 167.79C965.39 170.44 966.65 171.82 970.91 171.82C991.243 171.82 1011.9 171.61 1032.88 171.19C1033.8 171.17 1034.39 171.6 1034.65 172.48C1034.9 173.333 1035.03 174.507 1035.03 176C1035.01 189.247 1035.03 202.497 1035.09 215.75C1035.13 225.65 1031.66 237.54 1019.24 234.88C1015.62 234.1 1010.14 231.24 1007.46 228.82C997.487 219.827 987.4 210.96 977.2 202.22C974.98 200.32 973.613 198.633 973.1 197.16C971.93 193.78 973.37 187.8 977.01 186.29C979.49 185.27 982.05 184.667 984.69 184.48C984.758 184.475 984.827 184.485 984.891 184.51C984.954 184.535 985.012 184.573 985.059 184.623C985.106 184.673 985.141 184.733 985.162 184.798C985.183 184.863 985.189 184.932 985.18 185C984.74 188.36 981.41 190.12 980.33 193.44C980.204 193.823 980.218 194.239 980.37 194.612C980.522 194.986 980.802 195.294 981.16 195.48C985.92 197.99 990.93 199.07 994.85 194.32C996.057 192.867 996.543 191.257 996.31 189.49C995.02 179.92 985.47 177.28 977.09 178.33C974.243 178.683 971.803 179.67 969.77 181.29C964.85 185.22 961.25 193.03 961.21 199.25C961.103 216.17 960.973 233.087 960.82 250C960.8 251.673 961.3 252.983 962.32 253.93C976.71 267.25 993.6 281.22 1009.29 295.07C1017.89 302.657 1026.55 310.167 1035.28 317.6C1043.04 324.21 1052.3 332.91 1061.17 340.18C1064.76 343.13 1071.11 348.56 1071.54 353.24C1071.93 357.62 1069.89 365.51 1064.34 366.58C1062 367.03 1057.3 367.77 1055.58 365.49C1055.33 365.151 1055.21 364.727 1055.26 364.306C1055.3 363.884 1055.51 363.496 1055.83 363.22C1057.85 361.49 1062.09 357.9 1059.78 354.97C1058.47 353.31 1054.06 349.59 1051.71 350.28C1041.68 353.22 1042.25 362.15 1047.77 368.73C1054.4 376.65 1066.09 378.05 1075.48 374.68C1084.73 371.373 1091.65 365.803 1096.24 357.97C1105.9 341.51 1105.64 318.02 1092.15 303.61C1083.14 293.97 1071.73 284.5 1061.11 275.39C1058.54 273.19 1055.89 271.127 1053.16 269.2C1052.23 268.547 1052.33 268.133 1053.45 267.96ZM698 277.86L698.79 363.46C698.791 363.545 698.816 363.629 698.861 363.701C698.907 363.773 698.972 363.831 699.049 363.869C699.126 363.906 699.211 363.921 699.296 363.913C699.381 363.904 699.462 363.872 699.53 363.82L761.55 315.08C761.745 314.925 761.971 314.814 762.212 314.752C762.454 314.691 762.705 314.681 762.951 314.724C763.196 314.766 763.43 314.86 763.636 314.999C763.843 315.138 764.018 315.319 764.15 315.53C773.7 330.69 785.72 339.57 804.21 338.11C814.94 337.26 829.93 332.49 832.89 320.22C833.943 315.833 832.677 311.727 829.09 307.9C824.86 303.38 816.09 308.16 814.8 313.37C814.467 314.723 814.747 316.053 815.64 317.36C816.853 319.147 818.323 320.667 820.05 321.92C820.139 321.985 820.212 322.069 820.263 322.167C820.314 322.264 820.342 322.372 820.345 322.483C820.348 322.593 820.326 322.702 820.28 322.802C820.234 322.902 820.165 322.99 820.08 323.06C818.153 324.627 816.04 325.68 813.74 326.22C805.51 328.16 799.93 319.88 803.69 312.71C805.463 309.337 807.827 306.447 810.78 304.04C827.24 290.67 843.83 277.32 860.67 264.42C864.71 261.327 868.737 258.1 872.75 254.74C874.063 253.64 874.113 252.483 872.9 251.27C869.07 247.45 865.02 243.76 861.46 239.83C849.53 226.64 837.48 213.53 824.74 201.11C822.82 199.24 821.31 198.78 818.75 198.76C797.817 198.62 776.99 198.65 756.27 198.85C756.143 198.851 756.017 198.827 755.9 198.78C755.782 198.732 755.675 198.662 755.585 198.572C755.495 198.483 755.423 198.377 755.374 198.26C755.325 198.142 755.3 198.017 755.3 197.89L755.34 173.76C755.34 173.654 755.382 173.552 755.457 173.477C755.532 173.402 755.634 173.36 755.74 173.36L889.43 172.78C889.672 172.78 889.905 172.874 890.077 173.043C890.249 173.211 890.347 173.44 890.35 173.68L891.12 361.71C891.12 362.51 891.437 362.663 892.07 362.17C916.42 343.15 938.85 324.52 962.46 306.59C962.733 306.377 962.847 306.1 962.8 305.76C962.78 305.647 962.767 305.533 962.76 305.42C962.754 305.354 962.732 305.291 962.697 305.235C962.662 305.179 962.615 305.132 962.559 305.097C962.503 305.062 962.439 305.041 962.374 305.034C962.308 305.028 962.242 305.037 962.18 305.06C957.367 306.94 952.757 306.537 948.35 303.85C947.998 303.634 947.703 303.335 947.491 302.98C947.279 302.625 947.155 302.224 947.13 301.81C947.03 300.17 946.98 298.483 946.98 296.75C946.88 256.25 946.657 215.75 946.31 175.25C946.28 171.55 943.85 169.6 941.36 167.39C929.7 157.043 917.95 146.79 906.11 136.63C903.2 134.13 899.42 134.64 895.66 134.68C830.7 135.27 765.7 136.54 700.75 136.76C618.75 137.033 536.75 137.58 454.75 138.4C452.757 138.42 451.02 137.77 449.54 136.45C445.567 132.91 441.193 129.113 436.42 125.06C436.25 124.918 436.121 124.734 436.046 124.526C435.971 124.318 435.952 124.094 435.991 123.876C436.031 123.659 436.128 123.456 436.272 123.288C436.415 123.12 436.601 122.993 436.81 122.92C439.57 121.93 443.02 121.24 444.9 118.84C448.49 114.26 447.19 108.38 442.6 105.13C435.35 99.9999 426.3 106.22 423.61 113.59C420.44 122.28 429.4 134.18 435.48 139.51C447.993 150.497 460.597 161.383 473.29 172.17C475.59 174.13 477.64 175.05 480.5 175.03C552.007 174.577 624.003 174.297 696.49 174.19C697.057 174.19 697.34 174.473 697.34 175.04V198.78C697.347 199.093 697.19 199.25 696.87 199.25C675.79 199.637 654.76 200.063 633.78 200.53C632.333 200.557 631.1 201.077 630.08 202.09C625.347 206.777 620.57 211.417 615.75 216.01C605.59 225.677 595.453 235.37 585.34 245.09C584.633 245.763 584.133 246.357 583.84 246.87C583.42 247.597 583.517 248.247 584.13 248.82L649.31 309.86C649.517 310.052 649.784 310.168 650.066 310.188C650.347 310.208 650.628 310.131 650.86 309.97L697.55 277.62C697.85 277.413 698 277.493 698 277.86ZM356.18 251.18C355.893 259.6 355.833 268.207 356 277C356.02 277.933 356.13 278.61 356.33 279.03C356.71 279.857 357.263 280.267 357.99 280.26C371.63 280.16 385.2 279.6 398.52 280.26C398.627 280.265 398.728 280.312 398.801 280.391C398.873 280.469 398.913 280.573 398.91 280.68L398.74 363.74C398.74 364.147 398.93 364.28 399.31 364.14C400.597 363.66 401.78 362.993 402.86 362.14C418.9 349.46 435.22 337.15 451.2 324.39C457.32 319.497 463.547 314.74 469.88 310.12C470.113 309.947 470.273 309.773 470.36 309.6C470.403 309.517 470.42 309.424 470.411 309.331C470.401 309.238 470.365 309.15 470.306 309.076C470.247 309.003 470.169 308.947 470.079 308.916C469.989 308.885 469.893 308.879 469.8 308.9C465.453 309.953 461.217 309.93 457.09 308.83C454.68 308.19 454.14 307.13 454.12 304.75C453.747 264.417 453.523 224.083 453.45 183.75C453.443 180.357 453.383 177.073 453.27 173.9C453.251 173.401 453.131 172.911 452.918 172.46C452.705 172.01 452.403 171.608 452.03 171.28C441.863 162.38 431.467 153.567 420.84 144.84C416.06 140.91 413.6 138.35 408.51 138.46C344.46 139.89 280.32 139.46 216.25 140.24C213.737 140.273 211.817 139.63 210.49 138.31C206.297 134.117 201.84 130.03 197.12 126.05C196.993 125.943 196.899 125.801 196.851 125.641C196.803 125.482 196.802 125.312 196.849 125.152C196.895 124.992 196.987 124.849 197.113 124.74C197.24 124.632 197.395 124.562 197.56 124.54C208.44 123.04 206.04 109.57 197.93 106.27C192.46 104.05 187.31 104.27 183.4 109.14C179.62 113.85 177.69 119.43 181.02 125C183.4 128.973 186.667 132.87 190.82 136.69C204.09 148.86 217.79 160.69 230.86 172.88C233.27 175.13 235.4 176.39 238.5 176.46C255.2 176.853 273.2 176.897 292.5 176.59C294.56 176.557 296.443 176.56 298.15 176.6C298.456 176.605 298.748 176.729 298.965 176.945C299.181 177.162 299.305 177.454 299.31 177.76C299.57 194.073 299.46 210.15 298.98 225.99C298.88 229.223 298.45 231.623 297.69 233.19C294.53 239.73 285.03 241.04 279.16 238.94C276.82 238.107 273.75 235.98 269.95 232.56C262.263 225.647 254.53 218.783 246.75 211.97C244.177 209.717 242.477 207.947 241.65 206.66C238.84 202.31 237.75 195.63 242.41 192.09C243.71 191.1 245.74 190.81 247.22 191.24C247.458 191.311 247.676 191.436 247.858 191.605C248.04 191.773 248.181 191.981 248.27 192.212C248.359 192.443 248.394 192.691 248.371 192.937C248.348 193.183 248.269 193.42 248.14 193.63C246.3 196.65 243.18 200.38 247.01 203.46C250.61 206.36 255.38 204.18 257.86 200.88C259.98 198.06 260.357 195.023 258.99 191.77C255.74 184.02 249.72 182.75 242.25 183.05C230.75 183.53 224.62 194.2 224.5 204.75C224.307 221.283 224.227 237.82 224.26 254.36C224.26 255.82 224.7 257.69 225.63 258.62C233.6 266.51 243.95 274.69 252.13 282.13C263.07 292.06 274.42 301.55 285.49 311.36C297.95 322.41 310.76 332.92 323.02 344.23C331.16 351.73 334.81 360.94 330.5 371.72C328.5 376.74 321.95 376.48 317.91 374.54C317.615 374.398 317.361 374.183 317.173 373.914C316.985 373.646 316.869 373.334 316.836 373.007C316.803 372.68 316.854 372.35 316.984 372.048C317.114 371.745 317.319 371.481 317.58 371.28C321.95 367.92 326.52 362.3 320.04 357.8C315.29 354.5 310.54 355.41 307.46 360.29C300.69 371.02 312.97 381.66 322.86 382.89C350.15 386.3 366.59 358.52 365.95 334.74C365.46 316.41 351.94 302.76 338.42 291.36C331.207 285.273 324.053 279.407 316.96 273.76C315.267 272.407 315.503 271.713 317.67 271.68C332.71 271.45 346.25 262.28 355.43 250.9C355.963 250.247 356.213 250.34 356.18 251.18ZM532.62 238.84L574.21 239.06C575.063 239.067 575.49 238.643 575.49 237.79V201.27C575.49 201.111 575.426 200.958 575.311 200.846C575.197 200.733 575.042 200.67 574.88 200.67C554.233 200.77 533.523 200.817 512.75 200.81C511.243 200.81 510.077 201.21 509.25 202.01C495.89 214.983 482.477 227.9 469.01 240.76C468.35 241.393 467.773 241.99 467.28 242.55C467.14 242.713 467.063 242.921 467.065 243.134C467.067 243.348 467.147 243.553 467.29 243.71C469.897 246.597 472.583 249.25 475.35 251.67C485.137 260.237 494.837 268.9 504.45 277.66C515.6 287.81 528.03 298.45 539.52 309.24C545.02 314.41 547.05 325.31 537.79 327.59C535.39 328.177 533.427 328.117 531.9 327.41C530.567 326.797 530.257 325.847 530.97 324.56C532.33 322.1 537.59 316.06 534.23 312.77C529.59 308.22 522.49 308.45 520.06 314.89C518.65 318.63 518.17 322.89 520.45 326.53C524.69 333.303 530.703 336.863 538.49 337.21C553.51 337.88 565.77 333.7 574.56 321.33C589.71 300.02 577.82 278.97 560.78 264.21C551.31 256.01 541.21 248.22 532.44 239.27C532.16 238.983 532.22 238.84 532.62 238.84ZM532.18 413.13C528.21 410.22 529.01 401.57 535.03 403.39C535.183 403.437 535.283 403.383 535.33 403.23L535.42 402.94C535.487 402.7 535.403 402.543 535.17 402.47C529.66 400.7 522.49 402.44 520.99 408.56C519.03 416.56 527.78 420.01 532.99 423.47C537.39 426.38 538.32 431.64 532.88 433.77C532.333 433.983 531.79 434.207 531.25 434.44C530.903 434.587 530.837 434.813 531.05 435.12C531.17 435.293 531.34 435.393 531.56 435.42C536.91 436.11 544.15 435.85 545 428.77C546.13 419.4 538.09 417.47 532.18 413.13ZM710.76 418.73C708.06 421.24 703.42 426.64 705.95 430.5C708.217 433.96 711.667 435.613 716.3 435.46C716.573 435.447 716.67 435.31 716.59 435.05C716.33 434.19 715.843 433.547 715.13 433.12C709.07 429.48 707.87 426.04 713.53 420.84C713.763 420.627 714.033 420.557 714.34 420.63C718.04 421.483 720.753 423.27 722.48 425.99C724.23 428.74 720.36 434.07 717.62 435.3C716.96 435.593 716.99 435.763 717.71 435.81C722.79 436.137 726.95 434.437 730.19 430.71C734.65 425.58 727.37 418.8 723.54 415.21C722.68 414.4 720.2 414.68 718.9 413.93C716.7 412.677 715.257 410.877 714.57 408.53C714.476 408.208 714.468 407.867 714.547 407.542C714.626 407.217 714.789 406.92 715.02 406.68C716.44 405.193 718.11 404.077 720.03 403.33C720.363 403.197 720.67 403.243 720.95 403.47C724.28 406.22 724.2 408.6 724.27 412.69C724.277 413.33 724.59 413.723 725.21 413.87C727.05 414.323 728.177 413.853 728.59 412.46C730.88 404.78 725.35 403.64 719.75 402.19C718.09 401.763 716.59 401.69 715.25 401.97C710.88 402.89 705.25 407.04 707.07 412.13C707.74 414.01 709.83 415.6 710.94 417.62C711.038 417.8 711.073 418.007 711.04 418.208C711.008 418.409 710.909 418.593 710.76 418.73ZM688.87 434.69C688.722 434.884 688.524 435.035 688.297 435.125C688.07 435.216 687.822 435.243 687.581 435.204C687.34 435.165 687.114 435.061 686.927 434.904C686.74 434.746 686.599 434.541 686.52 434.31C685.5 431.34 684.62 424.09 679.21 427.15C678.75 427.41 678.487 427.9 678.42 428.62C677.94 433.76 682.97 436.14 687.3 436.15C691.84 436.17 695.77 433.96 698.59 430.5C703.37 424.65 702.49 409.17 696.24 404.2C694.84 403.087 692.857 402.393 690.29 402.12C681.3 401.19 676.53 405.41 677.15 414.61C677.57 420.88 683.29 423.72 689.13 422.22C689.61 422.1 689.883 421.783 689.95 421.27C689.968 421.114 689.928 420.958 689.837 420.831C689.746 420.705 689.612 420.619 689.46 420.59C687.667 420.243 686.603 419.053 686.27 417.02C685.617 413.087 685.603 409.25 686.23 405.51C686.288 405.157 686.429 404.823 686.642 404.536C686.855 404.248 687.133 404.016 687.454 403.857C687.775 403.699 688.128 403.619 688.486 403.625C688.843 403.631 689.195 403.722 689.51 403.89C694.85 406.73 692.09 418.41 692.64 423.41C693.16 428.12 691.36 431.46 688.87 434.69ZM748.74 403.02C753.87 408.79 753.27 418.77 752.4 426.2C752.02 429.4 750.16 431.92 748.8 434.86C748.768 434.932 748.753 435.01 748.758 435.089C748.762 435.167 748.785 435.244 748.825 435.312C748.866 435.379 748.922 435.436 748.989 435.478C749.056 435.519 749.131 435.544 749.21 435.55C754.52 435.92 759.62 429.77 761.03 425.51C761.91 422.823 762.093 419.67 761.58 416.05C760.59 409.06 757.44 403.64 750.21 402.56C748.083 402.247 746.627 402.09 745.84 402.09C739.89 402.14 735.59 409.13 734.94 414.24C734.3 419.247 734.237 422.92 734.75 425.26C735.43 428.3 741.17 436.62 745.78 435.5C745.972 435.453 746.15 435.359 746.297 435.228C746.445 435.097 746.559 434.932 746.629 434.747C746.699 434.562 746.723 434.362 746.698 434.166C746.674 433.97 746.603 433.782 746.49 433.62C744.39 430.58 743.247 427.377 743.06 424.01C742.77 418.54 742.39 411.62 744.48 406.46C745.18 404.73 746.62 403.96 748.09 402.94C748.33 402.78 748.547 402.807 748.74 403.02ZM661.34 410.96C661.689 410.983 662.015 411.143 662.248 411.405C662.48 411.667 662.599 412.01 662.58 412.36C662.407 415.927 662.3 419.493 662.26 423.06C662.22 426.82 661.59 430.11 660.95 433.73C660.905 433.995 660.965 434.267 661.117 434.487C661.268 434.708 661.499 434.859 661.76 434.91C664.68 435.45 667.563 435.36 670.41 434.64C671.17 434.447 671.503 433.96 671.41 433.18C670.45 424.907 670.18 416.43 670.6 407.75C670.64 406.93 670.393 405.42 669.86 403.22C669.793 402.94 669.62 402.773 669.34 402.72C667.34 402.327 665.793 402.557 664.7 403.41C662.34 405.26 658.96 406.48 657.67 409.34C657.601 409.491 657.571 409.656 657.581 409.821C657.59 409.987 657.64 410.147 657.726 410.289C657.811 410.431 657.93 410.55 658.072 410.635C658.214 410.721 658.375 410.77 658.54 410.78L661.34 410.96ZM555.94 402.68L552.1 403.03C551.927 403.045 551.759 403.094 551.606 403.174C551.452 403.254 551.315 403.364 551.204 403.496C551.092 403.629 551.008 403.783 550.956 403.948C550.904 404.113 550.885 404.287 550.9 404.46L551.01 405.6C551.094 406.518 551.457 407.373 552.019 407.976C552.582 408.58 553.298 408.883 554.01 408.82L555.11 408.72C555.822 408.654 556.472 408.226 556.917 407.53C557.361 406.835 557.564 405.928 557.48 405.01L557.38 403.87C557.364 403.697 557.314 403.529 557.232 403.376C557.151 403.223 557.04 403.087 556.907 402.976C556.773 402.866 556.619 402.783 556.453 402.732C556.287 402.681 556.113 402.663 555.94 402.68ZM539.26 407.73C539.418 408.013 539.65 408.248 539.93 408.41L542.04 409.64C542.343 409.816 542.69 409.899 543.039 409.881C543.389 409.862 543.725 409.742 544.008 409.535C544.29 409.328 544.506 409.043 544.629 408.716C544.752 408.388 544.776 408.031 544.7 407.69L544.06 404.82C543.979 404.461 543.79 404.135 543.518 403.886C543.247 403.637 542.905 403.478 542.54 403.43L539.96 403.09C539.63 403.048 539.295 403.098 538.992 403.236C538.688 403.373 538.429 403.591 538.243 403.867C538.056 404.142 537.95 404.464 537.935 404.797C537.921 405.129 537.998 405.459 538.16 405.75L539.26 407.73ZM555.02 411.47L554.32 411.19C551.847 410.197 550.68 411.03 550.82 413.69C551.167 420.243 550.9 426.78 550.02 433.3C549.84 434.627 550.42 435.283 551.76 435.27L557.37 435.19C558.717 435.17 559.36 434.487 559.3 433.14L558.59 416.51C558.483 414.063 557.293 412.383 555.02 411.47ZM588.82 419.55C588.33 413.03 583.47 409.76 577.13 411.79C576.973 411.842 576.834 411.937 576.728 412.064C576.623 412.191 576.555 412.345 576.533 412.509C576.511 412.673 576.536 412.84 576.604 412.99C576.673 413.141 576.782 413.269 576.92 413.36C579.15 414.81 581.23 415.1 581.45 418.25C581.73 422.157 581.757 426.933 581.53 432.58C581.47 434.14 582.22 434.963 583.78 435.05L588.24 435.3C589.773 435.387 590.437 434.67 590.23 433.15C589.657 429.037 589.187 424.503 588.82 419.55ZM605.25 413.71C606.403 413.95 607.463 414.403 608.43 415.07C608.724 415.269 608.929 415.578 609 415.93C609.29 417.37 609.67 418.52 611.13 419.12C612.65 419.73 615.77 419.85 616.29 417.76C616.84 415.55 614.11 413.29 612.47 412.48C611.683 412.087 610.34 411.887 608.44 411.88C605.01 411.86 600.7 410.46 598.12 413.61C593.107 419.703 592.83 426.153 597.29 432.96C599 435.58 602.93 435.87 606.06 435.19C609.58 434.43 612.48 434.24 615.49 431.7C615.556 431.643 615.61 431.573 615.647 431.494C615.684 431.415 615.703 431.329 615.704 431.242C615.705 431.155 615.688 431.069 615.652 430.989C615.617 430.909 615.565 430.838 615.5 430.78L615.19 430.5C614.823 430.173 614.477 430.19 614.15 430.55C611.963 432.977 609.213 433.73 605.9 432.81C605.578 432.72 605.301 432.517 605.12 432.24C603.787 430.26 603.093 428.93 603.04 428.25C602.75 424.88 602.13 416.62 604.35 414.01C604.59 413.73 604.89 413.63 605.25 413.71ZM628.8 425.13C629.493 425.17 630.147 425.087 630.76 424.88C631.133 424.76 631.127 424.653 630.74 424.56C629.04 424.13 627.77 424.13 627.12 421.97C626.19 418.92 627.1 414.06 631.25 414.08C632.677 414.087 633.417 414.743 633.47 416.05C633.56 418.44 634.25 422.65 632.04 424.22C631.767 424.413 631.797 424.53 632.13 424.57C635.01 424.883 637.067 424.907 638.3 424.64C642.99 423.64 641.78 417.5 639.61 414.65C636.61 410.7 632.4 412.03 628.38 411.94C626.19 411.89 623.52 412.27 622.23 413.71C618.877 417.463 617.67 422.157 618.61 427.79C618.857 429.303 620.37 431.383 623.15 434.03C624.663 435.483 626.457 436.05 628.53 435.73L630.01 435.5C632.123 435.18 632.333 434.363 630.64 433.05C628.62 431.497 627.463 429.43 627.17 426.85C627.145 426.626 627.169 426.399 627.241 426.185C627.312 425.971 627.43 425.775 627.585 425.611C627.741 425.447 627.93 425.319 628.139 425.236C628.349 425.153 628.575 425.117 628.8 425.13ZM574.81 433.39L574.37 415.95C574.351 415.079 574.027 414.242 573.454 413.583C572.88 412.924 572.094 412.484 571.23 412.34L568.73 411.92C566.77 411.593 565.893 412.42 566.1 414.4C566.74 420.673 566.55 426.907 565.53 433.1C565.303 434.493 565.893 435.193 567.3 435.2L572.99 435.25C574.237 435.257 574.843 434.637 574.81 433.39ZM528.01 432.65C526.36 430.01 523.82 427.98 521 427.19C520.916 427.166 520.827 427.161 520.741 427.174C520.654 427.187 520.571 427.218 520.498 427.265C520.424 427.312 520.361 427.374 520.313 427.448C520.265 427.521 520.234 427.603 520.22 427.69C519.887 429.943 520.09 432.14 520.83 434.28C520.881 434.43 520.974 434.563 521.097 434.664C521.221 434.765 521.371 434.829 521.53 434.85C523.443 435.097 525.363 434.97 527.29 434.47C527.475 434.422 527.646 434.332 527.789 434.205C527.932 434.079 528.043 433.921 528.113 433.743C528.184 433.566 528.211 433.374 528.193 433.184C528.175 432.994 528.112 432.811 528.01 432.65ZM639.16 429.89L633.55 434.11C633.537 434.12 633.527 434.132 633.519 434.146C633.511 434.16 633.506 434.175 633.504 434.191C633.502 434.207 633.504 434.223 633.508 434.238C633.513 434.253 633.52 434.268 633.53 434.28L633.55 434.3C633.874 434.729 634.475 434.921 635.222 434.835C635.968 434.749 636.798 434.391 637.53 433.84L637.8 433.64C638.164 433.366 638.492 433.053 638.767 432.718C639.041 432.383 639.256 432.033 639.399 431.688C639.543 431.343 639.611 431.011 639.601 430.709C639.591 430.407 639.502 430.143 639.34 429.93L639.33 429.91C639.32 429.897 639.308 429.887 639.294 429.879C639.28 429.871 639.265 429.866 639.249 429.864C639.233 429.862 639.217 429.864 639.202 429.868C639.187 429.873 639.172 429.88 639.16 429.89Z" fill="#D62A19"/>
<path d="M1053.45 267.96C1052.33 268.133 1052.23 268.547 1053.16 269.2C1055.89 271.127 1058.54 273.19 1061.11 275.39C1071.73 284.5 1083.14 293.97 1092.15 303.61C1105.64 318.02 1105.9 341.51 1096.24 357.97C1091.65 365.803 1084.73 371.373 1075.48 374.68C1066.09 378.05 1054.4 376.65 1047.77 368.73C1042.25 362.15 1041.68 353.22 1051.71 350.28C1054.06 349.59 1058.47 353.31 1059.78 354.97C1062.09 357.9 1057.85 361.49 1055.83 363.22C1055.51 363.496 1055.3 363.884 1055.26 364.306C1055.21 364.727 1055.33 365.151 1055.58 365.49C1057.3 367.77 1062 367.03 1064.34 366.58C1069.89 365.51 1071.93 357.62 1071.54 353.24C1071.11 348.56 1064.76 343.13 1061.17 340.18C1052.3 332.91 1043.04 324.21 1035.28 317.6C1026.55 310.167 1017.89 302.657 1009.29 295.07C993.6 281.22 976.71 267.25 962.32 253.93C961.3 252.983 960.8 251.673 960.82 250C960.973 233.087 961.103 216.17 961.21 199.25C961.25 193.03 964.85 185.22 969.77 181.29C971.803 179.67 974.243 178.683 977.09 178.33C985.47 177.28 995.02 179.92 996.31 189.49C996.543 191.257 996.057 192.867 994.85 194.32C990.93 199.07 985.92 197.99 981.16 195.48C980.802 195.294 980.522 194.986 980.37 194.613C980.218 194.239 980.204 193.823 980.33 193.44C981.41 190.12 984.74 188.36 985.18 185C985.189 184.932 985.183 184.863 985.162 184.798C985.141 184.733 985.106 184.673 985.059 184.623C985.012 184.573 984.954 184.535 984.891 184.51C984.827 184.485 984.758 184.475 984.69 184.48C982.05 184.667 979.49 185.27 977.01 186.29C973.37 187.8 971.93 193.78 973.1 197.16C973.613 198.633 974.98 200.32 977.2 202.22C987.4 210.96 997.487 219.827 1007.46 228.82C1010.14 231.24 1015.62 234.1 1019.24 234.88C1031.66 237.54 1035.13 225.65 1035.09 215.75C1035.03 202.497 1035.01 189.247 1035.03 176C1035.03 174.507 1034.9 173.333 1034.65 172.48C1034.39 171.6 1033.8 171.17 1032.88 171.19C1011.9 171.61 991.243 171.82 970.91 171.82C966.65 171.82 965.39 170.44 962.46 167.79C955.353 161.377 945.39 152.593 932.57 141.44C925.09 134.94 912.74 124.31 910.8 115.03C909.2 107.37 914.82 102.41 921.86 101.2C932.1 99.45 942.2 114.63 926.68 118.38C926.492 118.425 926.32 118.521 926.182 118.657C926.045 118.793 925.947 118.964 925.9 119.151C925.852 119.338 925.857 119.535 925.914 119.72C925.97 119.905 926.076 120.071 926.22 120.2C930.253 123.887 934.16 127.513 937.94 131.08C940.76 133.73 944.1 133.57 948.62 133.55C1000.57 133.297 1034.37 133.27 1050 133.47C1052.05 133.497 1054.13 134.51 1056.24 136.51C1067.77 147.477 1079.35 158.397 1090.98 169.27C1092.36 170.56 1092.7 172.64 1092.69 174.7C1092.66 199.08 1092.6 216.763 1092.49 227.75C1092.31 246.83 1081.55 263.17 1061.98 266.54C1058.84 267.08 1056 267.553 1053.45 267.96Z" fill="white"/>
<path d="M698 277.86C698 277.493 697.85 277.413 697.55 277.62L650.86 309.97C650.628 310.131 650.347 310.208 650.066 310.188C649.784 310.168 649.517 310.052 649.31 309.86L584.13 248.82C583.517 248.247 583.42 247.597 583.84 246.87C584.133 246.357 584.633 245.763 585.34 245.09C595.453 235.37 605.59 225.677 615.75 216.01C620.57 211.417 625.347 206.777 630.08 202.09C631.1 201.077 632.333 200.557 633.78 200.53C654.76 200.063 675.79 199.637 696.87 199.25C697.19 199.25 697.347 199.093 697.34 198.78V175.04C697.34 174.473 697.057 174.19 696.49 174.19C624.003 174.297 552.007 174.577 480.5 175.03C477.64 175.05 475.59 174.13 473.29 172.17C460.597 161.383 447.993 150.497 435.48 139.51C429.4 134.18 420.44 122.28 423.61 113.59C426.3 106.22 435.35 100 442.6 105.13C447.19 108.38 448.49 114.26 444.9 118.84C443.02 121.24 439.57 121.93 436.81 122.92C436.601 122.993 436.415 123.12 436.272 123.288C436.128 123.456 436.031 123.659 435.991 123.876C435.952 124.094 435.97 124.318 436.046 124.526C436.121 124.734 436.25 124.918 436.42 125.06C441.193 129.113 445.567 132.91 449.54 136.45C451.02 137.77 452.757 138.42 454.75 138.4C536.75 137.58 618.75 137.033 700.75 136.76C765.7 136.54 830.7 135.27 895.66 134.68C899.42 134.64 903.2 134.13 906.11 136.63C917.95 146.79 929.7 157.043 941.36 167.39C943.85 169.6 946.28 171.55 946.31 175.25C946.657 215.75 946.88 256.25 946.98 296.75C946.98 298.483 947.03 300.17 947.13 301.81C947.155 302.224 947.279 302.625 947.491 302.98C947.703 303.335 947.998 303.634 948.35 303.85C952.757 306.537 957.367 306.94 962.18 305.06C962.242 305.037 962.308 305.028 962.374 305.034C962.439 305.041 962.503 305.062 962.559 305.097C962.615 305.132 962.662 305.179 962.697 305.235C962.732 305.291 962.753 305.354 962.76 305.42C962.767 305.533 962.78 305.647 962.8 305.76C962.847 306.1 962.733 306.377 962.46 306.59C938.85 324.52 916.42 343.15 892.07 362.17C891.437 362.663 891.12 362.51 891.12 361.71L890.35 173.68C890.347 173.44 890.249 173.211 890.077 173.043C889.905 172.874 889.672 172.78 889.43 172.78L755.74 173.36C755.634 173.36 755.532 173.402 755.457 173.477C755.382 173.552 755.34 173.654 755.34 173.76L755.3 197.89C755.3 198.017 755.325 198.143 755.374 198.26C755.423 198.377 755.495 198.483 755.585 198.572C755.675 198.662 755.782 198.732 755.9 198.78C756.017 198.827 756.143 198.851 756.27 198.85C776.99 198.65 797.817 198.62 818.75 198.76C821.31 198.78 822.82 199.24 824.74 201.11C837.48 213.53 849.53 226.64 861.46 239.83C865.02 243.76 869.07 247.45 872.9 251.27C874.113 252.483 874.063 253.64 872.75 254.74C868.737 258.1 864.71 261.327 860.67 264.42C843.83 277.32 827.24 290.67 810.78 304.04C807.827 306.447 805.463 309.337 803.69 312.71C799.93 319.88 805.51 328.16 813.74 326.22C816.04 325.68 818.153 324.627 820.08 323.06C820.165 322.99 820.234 322.902 820.28 322.802C820.326 322.702 820.348 322.593 820.345 322.483C820.342 322.372 820.314 322.265 820.263 322.167C820.212 322.069 820.139 321.985 820.05 321.92C818.323 320.667 816.853 319.147 815.64 317.36C814.747 316.053 814.467 314.723 814.8 313.37C816.09 308.16 824.86 303.38 829.09 307.9C832.677 311.727 833.943 315.833 832.89 320.22C829.93 332.49 814.94 337.26 804.21 338.11C785.72 339.57 773.7 330.69 764.15 315.53C764.018 315.319 763.843 315.138 763.636 314.999C763.43 314.86 763.196 314.766 762.951 314.724C762.705 314.681 762.454 314.691 762.212 314.752C761.971 314.814 761.745 314.925 761.55 315.08L699.53 363.82C699.462 363.872 699.381 363.904 699.296 363.913C699.211 363.921 699.126 363.906 699.049 363.869C698.972 363.831 698.907 363.773 698.861 363.701C698.816 363.629 698.791 363.545 698.79 363.46L698 277.86ZM762.72 309.54C762.73 299.15 763.99 288.18 770.6 279.6C782.33 264.38 800.62 252.01 816.35 239.79C817.817 238.65 817.62 238.077 815.76 238.07L756.55 237.7C756.412 237.7 756.28 237.755 756.182 237.852C756.085 237.95 756.03 238.082 756.03 238.22C756.123 259.547 756.073 280.723 755.88 301.75C755.847 305.83 757.723 308.693 761.51 310.34C761.642 310.396 761.786 310.419 761.929 310.406C762.072 310.392 762.21 310.344 762.33 310.265C762.45 310.186 762.548 310.078 762.616 309.952C762.684 309.825 762.72 309.684 762.72 309.54ZM697.86 238.99C697.863 238.932 697.854 238.875 697.833 238.821C697.813 238.767 697.781 238.718 697.741 238.676C697.7 238.635 697.652 238.602 697.599 238.581C697.545 238.559 697.488 238.549 697.43 238.55L647.96 238.88C647.873 238.878 647.788 238.903 647.717 238.952C647.645 239.001 647.59 239.07 647.559 239.151C647.528 239.232 647.524 239.321 647.545 239.405C647.567 239.489 647.614 239.564 647.68 239.62L681.24 268.93C681.312 268.991 681.402 269.027 681.497 269.03C681.591 269.034 681.684 269.006 681.76 268.95L697.13 257.69C697.184 257.653 697.228 257.604 697.259 257.546C697.29 257.489 697.308 257.425 697.31 257.36L697.86 238.99Z" fill="white"/>
<path d="M356.18 251.18C356.213 250.34 355.963 250.247 355.43 250.9C346.25 262.28 332.71 271.45 317.67 271.68C315.503 271.713 315.267 272.407 316.96 273.76C324.053 279.407 331.207 285.273 338.42 291.36C351.94 302.76 365.46 316.41 365.95 334.74C366.59 358.52 350.15 386.3 322.86 382.89C312.97 381.66 300.69 371.02 307.46 360.29C310.54 355.41 315.29 354.5 320.04 357.8C326.52 362.3 321.95 367.92 317.58 371.28C317.319 371.481 317.114 371.745 316.984 372.048C316.854 372.35 316.803 372.68 316.836 373.007C316.869 373.334 316.985 373.646 317.173 373.914C317.361 374.183 317.615 374.398 317.91 374.54C321.95 376.48 328.5 376.74 330.5 371.72C334.81 360.94 331.16 351.73 323.02 344.23C310.76 332.92 297.95 322.41 285.49 311.36C274.42 301.55 263.07 292.06 252.13 282.13C243.95 274.69 233.6 266.51 225.63 258.62C224.7 257.69 224.26 255.82 224.26 254.36C224.227 237.82 224.307 221.283 224.5 204.75C224.62 194.2 230.75 183.53 242.25 183.05C249.72 182.75 255.74 184.02 258.99 191.77C260.357 195.023 259.98 198.06 257.86 200.88C255.38 204.18 250.61 206.36 247.01 203.46C243.18 200.38 246.3 196.65 248.14 193.63C248.269 193.42 248.348 193.183 248.371 192.937C248.394 192.691 248.359 192.443 248.27 192.212C248.181 191.981 248.04 191.773 247.858 191.605C247.676 191.436 247.458 191.311 247.22 191.24C245.74 190.81 243.71 191.1 242.41 192.09C237.75 195.63 238.84 202.31 241.65 206.66C242.477 207.947 244.177 209.717 246.75 211.97C254.53 218.783 262.263 225.647 269.95 232.56C273.75 235.98 276.82 238.107 279.16 238.94C285.03 241.04 294.53 239.73 297.69 233.19C298.45 231.623 298.88 229.223 298.98 225.99C299.46 210.15 299.57 194.073 299.31 177.76C299.305 177.454 299.181 177.162 298.965 176.945C298.748 176.729 298.456 176.605 298.15 176.6C296.443 176.56 294.56 176.557 292.5 176.59C273.2 176.897 255.2 176.853 238.5 176.46C235.4 176.39 233.27 175.13 230.86 172.88C217.79 160.69 204.09 148.86 190.82 136.69C186.667 132.87 183.4 128.973 181.02 125C177.69 119.43 179.62 113.85 183.4 109.14C187.31 104.27 192.46 104.05 197.93 106.27C206.04 109.57 208.44 123.04 197.56 124.54C197.395 124.562 197.24 124.632 197.114 124.74C196.987 124.849 196.895 124.992 196.849 125.152C196.802 125.312 196.803 125.482 196.851 125.641C196.899 125.801 196.993 125.943 197.12 126.05C201.84 130.03 206.297 134.117 210.49 138.31C211.817 139.63 213.737 140.273 216.25 140.24C280.32 139.46 344.46 139.89 408.51 138.46C413.6 138.35 416.06 140.91 420.84 144.84C431.467 153.567 441.863 162.38 452.03 171.28C452.403 171.608 452.705 172.01 452.918 172.46C453.131 172.911 453.251 173.401 453.27 173.9C453.383 177.073 453.443 180.357 453.45 183.75C453.523 224.083 453.747 264.417 454.12 304.75C454.14 307.13 454.68 308.19 457.09 308.83C461.217 309.93 465.453 309.953 469.8 308.9C469.893 308.879 469.989 308.885 470.079 308.916C470.169 308.947 470.247 309.003 470.306 309.076C470.365 309.15 470.401 309.238 470.411 309.331C470.42 309.424 470.403 309.517 470.36 309.6C470.273 309.773 470.113 309.947 469.88 310.12C463.547 314.74 457.32 319.497 451.2 324.39C435.22 337.15 418.9 349.46 402.86 362.14C401.78 362.993 400.597 363.66 399.31 364.14C398.93 364.28 398.74 364.147 398.74 363.74L398.91 280.68C398.913 280.573 398.873 280.469 398.801 280.391C398.728 280.312 398.627 280.265 398.52 280.26C385.2 279.6 371.63 280.16 357.99 280.26C357.263 280.267 356.71 279.857 356.33 279.03C356.13 278.61 356.02 277.933 356 277C355.833 268.207 355.893 259.6 356.18 251.18ZM398.03 176.27C398.03 176.18 397.994 176.093 397.93 176.03C397.867 175.966 397.78 175.93 397.69 175.93L358.56 175.98C358.47 175.98 358.383 176.016 358.32 176.08C358.256 176.143 358.22 176.23 358.22 176.32L358.28 235.49C358.28 235.58 358.316 235.667 358.38 235.73C358.443 235.794 358.53 235.83 358.62 235.83L398.06 235.36C398.15 235.36 398.237 235.324 398.3 235.26C398.364 235.197 398.4 235.11 398.4 235.02L398.03 176.27Z" fill="white"/>
<path d="M398.03 176.27L398.4 235.02C398.4 235.11 398.364 235.197 398.3 235.26C398.237 235.324 398.15 235.36 398.06 235.36L358.62 235.83C358.53 235.83 358.443 235.794 358.38 235.73C358.316 235.667 358.28 235.58 358.28 235.49L358.22 176.32C358.22 176.23 358.256 176.143 358.32 176.08C358.383 176.016 358.47 175.98 358.56 175.98L397.69 175.93C397.78 175.93 397.867 175.966 397.93 176.03C397.994 176.093 398.03 176.18 398.03 176.27Z" fill="#D62A19"/>
<path d="M532.44 239.27C541.21 248.22 551.31 256.01 560.78 264.21C577.82 278.97 589.71 300.02 574.56 321.33C565.77 333.7 553.51 337.88 538.49 337.21C530.703 336.863 524.69 333.303 520.45 326.53C518.17 322.89 518.65 318.63 520.06 314.89C522.49 308.45 529.59 308.22 534.23 312.77C537.59 316.06 532.33 322.1 530.97 324.56C530.257 325.847 530.567 326.797 531.9 327.41C533.427 328.117 535.39 328.177 537.79 327.59C547.05 325.31 545.02 314.41 539.52 309.24C528.03 298.45 515.6 287.81 504.45 277.66C494.837 268.9 485.137 260.237 475.35 251.67C472.583 249.25 469.897 246.597 467.29 243.71C467.147 243.553 467.067 243.348 467.065 243.134C467.063 242.921 467.14 242.713 467.28 242.55C467.773 241.99 468.35 241.393 469.01 240.76C482.477 227.9 495.89 214.983 509.25 202.01C510.077 201.21 511.243 200.81 512.75 200.81C533.523 200.817 554.233 200.77 574.88 200.67C575.042 200.67 575.197 200.733 575.311 200.846C575.426 200.958 575.49 201.111 575.49 201.27V237.79C575.49 238.643 575.063 239.067 574.21 239.06L532.62 238.84C532.22 238.84 532.16 238.983 532.44 239.27Z" fill="white"/>
<path d="M770.6 279.6C763.99 288.18 762.73 299.15 762.72 309.54C762.72 309.684 762.684 309.825 762.616 309.951C762.548 310.078 762.45 310.186 762.33 310.265C762.21 310.344 762.072 310.392 761.929 310.406C761.786 310.419 761.642 310.396 761.51 310.34C757.723 308.693 755.847 305.83 755.88 301.75C756.073 280.723 756.123 259.547 756.03 238.22C756.03 238.082 756.085 237.95 756.182 237.852C756.28 237.755 756.412 237.7 756.55 237.7L815.76 238.07C817.62 238.077 817.817 238.65 816.35 239.79C800.62 252.01 782.33 264.38 770.6 279.6Z" fill="#D62A19"/>
<path d="M697.86 238.99L697.31 257.36C697.308 257.425 697.29 257.489 697.259 257.546C697.228 257.603 697.184 257.653 697.13 257.69L681.76 268.95C681.684 269.006 681.591 269.034 681.497 269.03C681.402 269.027 681.312 268.991 681.24 268.93L647.68 239.62C647.614 239.564 647.567 239.489 647.545 239.405C647.524 239.321 647.528 239.232 647.559 239.151C647.59 239.07 647.645 239.001 647.717 238.952C647.788 238.903 647.873 238.878 647.96 238.88L697.43 238.55C697.488 238.548 697.545 238.559 697.599 238.581C697.652 238.602 697.7 238.635 697.741 238.676C697.781 238.718 697.813 238.767 697.833 238.821C697.854 238.875 697.863 238.932 697.86 238.99Z" fill="#D62A19"/>
<path d="M535.03 403.39C529.01 401.57 528.21 410.22 532.18 413.13C538.09 417.47 546.13 419.4 545 428.77C544.15 435.85 536.91 436.11 531.56 435.42C531.34 435.393 531.17 435.293 531.05 435.12C530.837 434.813 530.903 434.587 531.25 434.44C531.79 434.207 532.333 433.983 532.88 433.77C538.32 431.64 537.39 426.38 532.99 423.47C527.78 420.01 519.03 416.56 520.99 408.56C522.49 402.44 529.66 400.7 535.17 402.47C535.403 402.543 535.487 402.7 535.42 402.94L535.33 403.23C535.283 403.383 535.183 403.437 535.03 403.39Z" fill="white"/>
<path d="M710.76 418.73C710.909 418.593 711.008 418.409 711.04 418.208C711.073 418.007 711.038 417.8 710.94 417.62C709.83 415.6 707.74 414.01 707.07 412.13C705.25 407.04 710.88 402.89 715.25 401.97C716.59 401.69 718.09 401.763 719.75 402.19C725.35 403.64 730.88 404.78 728.59 412.46C728.177 413.853 727.05 414.323 725.21 413.87C724.59 413.723 724.277 413.33 724.27 412.69C724.2 408.6 724.28 406.22 720.95 403.47C720.67 403.243 720.363 403.197 720.03 403.33C718.11 404.077 716.44 405.193 715.02 406.68C714.789 406.92 714.626 407.217 714.547 407.542C714.468 407.867 714.476 408.208 714.57 408.53C715.257 410.877 716.7 412.677 718.9 413.93C720.2 414.68 722.68 414.4 723.54 415.21C727.37 418.8 734.65 425.58 730.19 430.71C726.95 434.437 722.79 436.137 717.71 435.81C716.99 435.763 716.96 435.593 717.62 435.3C720.36 434.07 724.23 428.74 722.48 425.99C720.753 423.27 718.04 421.483 714.34 420.63C714.033 420.557 713.763 420.627 713.53 420.84C707.87 426.04 709.07 429.48 715.13 433.12C715.843 433.547 716.33 434.19 716.59 435.05C716.67 435.31 716.573 435.447 716.3 435.46C711.667 435.613 708.217 433.96 705.95 430.5C703.42 426.64 708.06 421.24 710.76 418.73Z" fill="white"/>
<path d="M688.87 434.69C691.36 431.46 693.16 428.12 692.64 423.41C692.09 418.41 694.85 406.73 689.51 403.89C689.195 403.722 688.843 403.631 688.486 403.625C688.128 403.619 687.775 403.699 687.454 403.857C687.133 404.016 686.855 404.248 686.642 404.536C686.429 404.823 686.288 405.157 686.23 405.51C685.603 409.25 685.617 413.087 686.27 417.02C686.603 419.053 687.667 420.243 689.46 420.59C689.612 420.619 689.746 420.705 689.837 420.831C689.928 420.958 689.968 421.114 689.95 421.27C689.883 421.783 689.61 422.1 689.13 422.22C683.29 423.72 677.57 420.88 677.15 414.61C676.53 405.41 681.3 401.19 690.29 402.12C692.857 402.393 694.84 403.087 696.24 404.2C702.49 409.17 703.37 424.65 698.59 430.5C695.77 433.96 691.84 436.17 687.3 436.15C682.97 436.14 677.94 433.76 678.42 428.62C678.487 427.9 678.75 427.41 679.21 427.15C684.62 424.09 685.5 431.34 686.52 434.31C686.599 434.541 686.74 434.746 686.927 434.904C687.114 435.061 687.34 435.165 687.581 435.204C687.822 435.243 688.07 435.216 688.297 435.125C688.524 435.035 688.722 434.884 688.87 434.69Z" fill="white"/>
<path d="M748.09 402.94C746.62 403.96 745.18 404.73 744.48 406.46C742.39 411.62 742.77 418.54 743.06 424.01C743.247 427.377 744.39 430.58 746.49 433.62C746.603 433.783 746.674 433.97 746.698 434.166C746.723 434.362 746.699 434.562 746.629 434.747C746.559 434.932 746.445 435.097 746.297 435.228C746.15 435.359 745.972 435.453 745.78 435.5C741.17 436.62 735.43 428.3 734.75 425.26C734.237 422.92 734.3 419.247 734.94 414.24C735.59 409.13 739.89 402.14 745.84 402.09C746.627 402.09 748.083 402.247 750.21 402.56C757.44 403.64 760.59 409.06 761.58 416.05C762.093 419.67 761.91 422.823 761.03 425.51C759.62 429.77 754.52 435.92 749.21 435.55C749.131 435.544 749.056 435.519 748.989 435.478C748.922 435.436 748.866 435.379 748.825 435.312C748.785 435.244 748.762 435.168 748.758 435.089C748.753 435.01 748.768 434.932 748.8 434.86C750.16 431.92 752.02 429.4 752.4 426.2C753.27 418.77 753.87 408.79 748.74 403.02C748.547 402.807 748.33 402.78 748.09 402.94Z" fill="white"/>
<path d="M661.34 410.96L658.54 410.78C658.375 410.77 658.214 410.721 658.072 410.635C657.93 410.55 657.811 410.431 657.726 410.289C657.64 410.147 657.59 409.987 657.58 409.821C657.571 409.656 657.601 409.491 657.67 409.34C658.96 406.48 662.34 405.26 664.7 403.41C665.793 402.557 667.34 402.327 669.34 402.72C669.62 402.773 669.793 402.94 669.86 403.22C670.393 405.42 670.64 406.93 670.6 407.75C670.18 416.43 670.45 424.907 671.41 433.18C671.503 433.96 671.17 434.447 670.41 434.64C667.563 435.36 664.68 435.45 661.76 434.91C661.499 434.859 661.268 434.708 661.116 434.487C660.965 434.267 660.905 433.995 660.95 433.73C661.59 430.11 662.22 426.82 662.26 423.06C662.3 419.493 662.407 415.927 662.58 412.36C662.599 412.01 662.48 411.667 662.248 411.405C662.015 411.143 661.689 410.983 661.34 410.96Z" fill="white"/>
<path d="M555.94 402.68C556.113 402.664 556.287 402.681 556.453 402.732C556.619 402.783 556.773 402.866 556.907 402.977C557.04 403.087 557.151 403.223 557.232 403.376C557.314 403.53 557.364 403.697 557.38 403.87L557.48 405.01C557.564 405.928 557.361 406.835 556.917 407.531C556.472 408.226 555.822 408.654 555.11 408.72L554.01 408.82C553.298 408.883 552.582 408.58 552.019 407.976C551.457 407.373 551.094 406.518 551.01 405.6L550.9 404.46C550.885 404.287 550.904 404.113 550.956 403.948C551.008 403.783 551.092 403.629 551.204 403.497C551.315 403.364 551.452 403.254 551.606 403.174C551.759 403.094 551.927 403.045 552.1 403.03L555.94 402.68Z" fill="white"/>
<path d="M539.26 407.73L538.16 405.75C537.998 405.459 537.921 405.129 537.935 404.797C537.95 404.464 538.056 404.142 538.243 403.867C538.429 403.591 538.688 403.373 538.992 403.236C539.295 403.098 539.63 403.048 539.96 403.09L542.54 403.43C542.905 403.478 543.247 403.638 543.519 403.886C543.79 404.135 543.979 404.461 544.06 404.82L544.7 407.69C544.776 408.032 544.752 408.388 544.629 408.716C544.506 409.043 544.29 409.328 544.008 409.535C543.725 409.742 543.389 409.862 543.04 409.881C542.69 409.899 542.343 409.816 542.04 409.64L539.93 408.41C539.65 408.248 539.418 408.013 539.26 407.73Z" fill="white"/>
<path d="M555.02 411.47C557.293 412.383 558.483 414.063 558.59 416.51L559.3 433.14C559.36 434.487 558.717 435.17 557.37 435.19L551.76 435.27C550.42 435.283 549.84 434.627 550.02 433.3C550.9 426.78 551.167 420.243 550.82 413.69C550.68 411.03 551.847 410.197 554.32 411.19L555.02 411.47Z" fill="white"/>
<path d="M577.13 411.79C583.47 409.76 588.33 413.03 588.82 419.55C589.187 424.503 589.657 429.037 590.23 433.15C590.437 434.67 589.773 435.387 588.24 435.3L583.78 435.05C582.22 434.963 581.47 434.14 581.53 432.58C581.757 426.933 581.73 422.157 581.45 418.25C581.23 415.1 579.15 414.81 576.92 413.36C576.782 413.269 576.673 413.141 576.604 412.99C576.536 412.84 576.511 412.673 576.533 412.509C576.555 412.345 576.623 412.191 576.728 412.064C576.834 411.937 576.973 411.842 577.13 411.79Z" fill="white"/>
<path d="M604.35 414.01C602.13 416.62 602.75 424.88 603.04 428.25C603.093 428.93 603.787 430.26 605.12 432.24C605.301 432.517 605.578 432.72 605.9 432.81C609.213 433.73 611.963 432.977 614.15 430.55C614.477 430.19 614.823 430.173 615.19 430.5L615.5 430.78C615.565 430.838 615.617 430.909 615.652 430.989C615.688 431.069 615.705 431.155 615.704 431.242C615.703 431.33 615.684 431.415 615.647 431.494C615.61 431.573 615.556 431.644 615.49 431.7C612.48 434.24 609.58 434.43 606.06 435.19C602.93 435.87 599 435.58 597.29 432.96C592.83 426.153 593.107 419.703 598.12 413.61C600.7 410.46 605.01 411.86 608.44 411.88C610.34 411.887 611.683 412.087 612.47 412.48C614.11 413.29 616.84 415.55 616.29 417.76C615.77 419.85 612.65 419.73 611.13 419.12C609.67 418.52 609.29 417.37 609 415.93C608.929 415.578 608.724 415.269 608.43 415.07C607.463 414.403 606.403 413.95 605.25 413.71C604.89 413.63 604.59 413.73 604.35 414.01Z" fill="white"/>
<path d="M628.8 425.13C628.575 425.117 628.349 425.153 628.139 425.236C627.93 425.32 627.741 425.447 627.585 425.611C627.43 425.775 627.312 425.971 627.241 426.185C627.169 426.399 627.145 426.626 627.17 426.85C627.463 429.43 628.62 431.497 630.64 433.05C632.333 434.363 632.123 435.18 630.01 435.5L628.53 435.73C626.457 436.05 624.663 435.483 623.15 434.03C620.37 431.383 618.857 429.303 618.61 427.79C617.67 422.157 618.877 417.463 622.23 413.71C623.52 412.27 626.19 411.89 628.38 411.94C632.4 412.03 636.61 410.7 639.61 414.65C641.78 417.5 642.99 423.64 638.3 424.64C637.067 424.907 635.01 424.883 632.13 424.57C631.797 424.53 631.767 424.413 632.04 424.22C634.25 422.65 633.56 418.44 633.47 416.05C633.417 414.743 632.677 414.087 631.25 414.08C627.1 414.06 626.19 418.92 627.12 421.97C627.77 424.13 629.04 424.13 630.74 424.56C631.127 424.653 631.133 424.76 630.76 424.88C630.147 425.087 629.493 425.17 628.8 425.13Z" fill="white"/>
<path d="M574.81 433.39C574.843 434.637 574.237 435.257 572.99 435.25L567.3 435.2C565.893 435.193 565.303 434.493 565.53 433.1C566.55 426.907 566.74 420.673 566.1 414.4C565.893 412.42 566.77 411.593 568.73 411.92L571.23 412.34C572.094 412.484 572.88 412.924 573.454 413.583C574.027 414.242 574.351 415.079 574.37 415.95L574.81 433.39Z" fill="white"/>
<path d="M528.01 432.65C528.112 432.811 528.175 432.994 528.193 433.184C528.211 433.374 528.184 433.566 528.113 433.743C528.043 433.921 527.932 434.079 527.789 434.206C527.646 434.332 527.475 434.422 527.29 434.47C525.363 434.97 523.443 435.097 521.53 434.85C521.371 434.829 521.221 434.765 521.097 434.664C520.974 434.563 520.881 434.43 520.83 434.28C520.09 432.14 519.887 429.943 520.22 427.69C520.234 427.604 520.265 427.521 520.313 427.448C520.361 427.375 520.424 427.312 520.498 427.265C520.571 427.218 520.654 427.187 520.741 427.174C520.827 427.161 520.916 427.166 521 427.19C523.82 427.98 526.36 430.01 528.01 432.65Z" fill="white"/>
<path d="M639.16 429.89C639.172 429.88 639.187 429.873 639.202 429.868C639.217 429.864 639.233 429.862 639.249 429.864C639.265 429.866 639.28 429.871 639.294 429.879C639.308 429.887 639.32 429.897 639.33 429.91L639.34 429.93C639.502 430.143 639.591 430.407 639.601 430.709C639.611 431.011 639.543 431.344 639.4 431.688C639.256 432.033 639.041 432.383 638.767 432.718C638.493 433.053 638.164 433.366 637.8 433.64L637.53 433.84C636.798 434.391 635.968 434.749 635.222 434.835C634.475 434.921 633.874 434.729 633.55 434.3L633.53 434.28C633.52 434.268 633.513 434.253 633.508 434.238C633.504 434.223 633.503 434.207 633.504 434.191C633.506 434.175 633.511 434.16 633.519 434.146C633.527 434.132 633.537 434.12 633.55 434.11L639.16 429.89Z" fill="white"/>
</svg>
